<svg xmlns="http://www.w3.org/2000/svg" viewBox="0 0 130.61 124.25"><defs><style>.cls-1{fill:#e2001a;}.cls-2{fill:#fff;}</style></defs><title>Element 1</title><g id="Ebene_2" data-name="Ebene 2"><g id="Ebene_1-2" data-name="Ebene 1"><path class="cls-1" d="M94,75.73c3.65-.91,3.35-3.2,4.11-4.26s2.43.46,3.65-3.35,3.2-2.59,3.35-9.28,0-9.43,1.07-11.56,1.37-2.74.46-4.87-.3-3.35.3-5-.15-3.5-1.22-5.33,1.07-1.67-2-3.5c0,0-1.67-5.63-2.43-8.67s-1.83-3.65-4.26-5.33-6.54-9-13.54-10.35S75.33,2.39,71.22,1.33,58.9-.8,52.36.87s-11,3.65-12.93,6.85c0,0-7.45,1.83-14.61,11.56,0,0-3.35,1.22-4.87,8.21s-3.19,12.93-2.43,17.35,1.07,5.33,1.07,7.91.15,4.72,1.67,6.54,4.56,4.56,4.41,6.85,1.22,2.43,2.43,2.59-.91,3.35,7.3,7S44,79.84,44.6,81.21s4-.15,6.39,1.83,11.25,2.08,16.58,1.07S94,75.73,94,75.73Z"/><path class="cls-2" d="M94,75.73c-1.22-2-2.44-2.74-4.72-3.65s-2.43-2.59-4.87-5.33A36.8,36.8,0,0,1,78.38,56c-.91-2.89,2.13-3.65.46-5.93s-3-2.59-4-2.28-1.67,1.37-3.35-.46S66.2,42.56,63,42.56s-4.56,1.22-6.09,2-3,.15-5.63,2.59-2.89,3.5-3.2,5-1.67,5.48-.15,7.91A5.69,5.69,0,0,0,51.6,62.8a23.47,23.47,0,0,0,2.89,4.11c1.37,1.37,4.72,8,7,8s8.85,1.27,9.74,4.93C72,83,72,83,72,83S86.74,80.14,94,75.73Z"/><path class="cls-1" d="M51.6,48.65c2.59-1.52,6.85-5.78,9.13-5.93s6.7,2.28,7.15,5,1.37,2.43-5.17,5.63c-5.33,2.43-7.15-.46-7.15-.46s-1.52-.76-2.43-.15c0,0,.61,4.72.3,5.93s-.3,3.5-1.83,4.11S37.45,58.69,41.4,56,51.6,48.65,51.6,48.65Z"/><circle class="cls-2" cx="58.75" cy="49.26" r="1.67"/><ellipse class="cls-2" cx="48.63" cy="59" rx="0.91" ry="1.6" transform="translate(-22.91 85.95) rotate(-71.15)"/><path class="cls-1" d="M79.29,48.8c-.91-1.37,1.06,3.8-1.22,4.26s-2.57.62-3,.15a7.24,7.24,0,0,1-.79-1.6c-.87-3-2.23-5.42-3-7.53-3,.91-2.26,3.72-2,5.09s1.44,8.43,2.81,12.54-3.9,7.63-6.64,9.3-3.5-.91-3.2-2.13a30,30,0,0,1,2-4.26,22.41,22.41,0,0,1-3,3.35c-1.22.91-2.59.61-4.11.15,0,0-.61,0-1.06.91-.23.46.3,1.67,1.25,3-.5-.12-1.11-.23-1.89-.35-1.5-.23,15.51,14.32,15.86,8.19.19-3.35,1.52-8.52,2.89-10.65s4.57-5,3.65-8.06-2.13-6.85-2.13-6.85a4.18,4.18,0,0,0,3-.76A3.71,3.71,0,0,0,79.29,48.8Z"/><path class="cls-1" d="M63.91,59.62c-.65-.72-1.59-1.66-3.76.36s-3.34,1.5-3.19-.23l0,0a1.37,1.37,0,0,1,.44-.56s-.61-.61.46-1.07,2.43-.46,2.43-.91-.61-.76-1.67-.61-1.67.46-1.83,1.22-.61,1.52-1.52,1.52a3.86,3.86,0,0,1-1.83-.61c1.49,1,1.8,3.38,1.8,5a18.18,18.18,0,0,0,.29,3.91c.22.65.54-1.82.54-1.82a18.63,18.63,0,0,1,2.86-3.46c.72-.72,2.55-2.2,3.43-2.2S64.77,61.93,65,62.5A8.5,8.5,0,0,0,63.91,59.62Z"/><path class="cls-1" d="M18,98.46,15.83,104q-.68,1.8-1.67,4.15a15.5,15.5,0,0,0,1.39-.74,14.23,14.23,0,0,0,3.74-4.19,1.14,1.14,0,0,1,1.36-.45c.26.12.22.54-.11,1.27q-.14.35-5,5.8a8.93,8.93,0,0,1-3.17,2.31q-3.56,7.33-6.45,10.26a6.42,6.42,0,0,1-3.56,1.74q-1.78.31-2.21-.25a.66.66,0,0,1-.14-.4,3,3,0,0,1,.64-1.4q1.25-1.72,1.32-1.87,1.43-2,5.1-8A2.68,2.68,0,0,1,6,110a2.25,2.25,0,0,1,.39-1.32,3.75,3.75,0,0,1,2.17-1.81,1.71,1.71,0,0,1,1.07.17q.43-.93,1.85-4.39-1,.64-2.39,1.6a10.37,10.37,0,0,0-1.78,1.88,5.19,5.19,0,0,1-.82,1c-.5.3-.86.36-1.07.19a.55.55,0,0,1-.28-.52,1.51,1.51,0,0,1,.21-.72q.78-1.6,5.56-5.19.75-.56,1.75-1.27a50.3,50.3,0,0,1,4.88-9.81Q21,84.56,24.78,83.9q3.35-.59,3.35,2.15,0,2.53-2.71,6.18Q23.67,94.61,18,98.46Zm4.6-10.65a55.28,55.28,0,0,0-3.28,7.28A13.67,13.67,0,0,0,20.82,94a15,15,0,0,0,2-2.46,10.52,10.52,0,0,0,1.57-2.88,4.57,4.57,0,0,0,.18-1.14q0-.93-.64-.81A2.22,2.22,0,0,0,22.56,87.82Z"/><path class="cls-1" d="M23.67,96.85a1.72,1.72,0,0,1-.82-1.53,4.94,4.94,0,0,1,.53-2A3.53,3.53,0,0,1,26,91.17a1.51,1.51,0,0,1,1.09.16,1.11,1.11,0,0,1,.45,1,4.32,4.32,0,0,1-.43,1.71,3.67,3.67,0,0,0,2.78-.56,9.51,9.51,0,0,1,2.21-.92q1-.17,1.14.62a2.23,2.23,0,0,1,.07.56,3.49,3.49,0,0,1-.36,1.4c-.24.53-.48,1-.71,1.53q-1.18,2.7-2.64,6.24-.43,1.25,0,1.43a1.67,1.67,0,0,0,1.07-.79q.86-.94,2.14-2.45a1.39,1.39,0,0,1,1-.67.48.48,0,0,1,.5.13.63.63,0,0,1,.29.45,3.17,3.17,0,0,1-.64,1.15,28.1,28.1,0,0,1-7,7.12,5,5,0,0,1-1.92.84,2.28,2.28,0,0,1-2.16-.58,2.25,2.25,0,0,1-.69-1.87q.25-2.29,3.64-7.13a5.85,5.85,0,0,0,1.32-2.8q0-.89-1.53-.62-3.85,5.71-5.49,7.6-.61.71-1.25.4a.39.39,0,0,1-.29-.41.9.9,0,0,1,.29-.62q1.53-2,2.39-3.2A41.85,41.85,0,0,0,23.67,96.85Z"/><path class="cls-1" d="M38.89,102.76q-.18,2,1.43,1.74a6,6,0,0,0,2.53-1.3,15.91,15.91,0,0,0,2.42-2.35,17.29,17.29,0,0,1,1.84-2.09,2.57,2.57,0,0,1,.59-.41,1.2,1.2,0,0,1,.71.16.36.36,0,0,1,.18.32q0,.79-2.5,3.54-4.6,5.05-8.41,5.72a3.84,3.84,0,0,1-2.07-.13,3.54,3.54,0,0,1-1.89-1.77,3.07,3.07,0,0,1-.43-1.92c.09-.61.17-1,.21-1.21a3.13,3.13,0,0,1,.78-1.17Q33.36,103,33,103.06a.64.64,0,0,1-.59-.22.84.84,0,0,1-.27-.59q0-.43.71-1.05a34.58,34.58,0,0,0,2.37-3.06,31.37,31.37,0,0,1,4-4.6,11.09,11.09,0,0,1,5.2-3.13,2.83,2.83,0,0,1,2.39.47,2.47,2.47,0,0,1,1,2q0,1.71-2.14,4.37A20.19,20.19,0,0,1,38.89,102.76Zm2.42-4q.57-.1,2.42-2.39a4.28,4.28,0,0,0,1.1-2.66c0-.38-.14-.54-.43-.49q-.68.12-2.43,2.74a5.22,5.22,0,0,0-1.21,2.42C40.78,98.67,41,98.8,41.31,98.73Z"/><path class="cls-1" d="M53.36,100.21q-.18,2,1.43,1.75a6,6,0,0,0,2.53-1.3,16,16,0,0,0,2.42-2.35,17,17,0,0,1,1.84-2.09,2.51,2.51,0,0,1,.59-.41,1.22,1.22,0,0,1,.71.16.36.36,0,0,1,.18.33q0,.78-2.5,3.54-4.6,5.05-8.41,5.72a3.84,3.84,0,0,1-2.07-.13,3.53,3.53,0,0,1-1.89-1.77,3.07,3.07,0,0,1-.43-1.92c.1-.61.17-1,.21-1.21a3.13,3.13,0,0,1,.78-1.17q-.93,1.09-1.32,1.16a.64.64,0,0,1-.59-.22.84.84,0,0,1-.27-.59q0-.43.71-1.05a34.62,34.62,0,0,0,2.37-3.05,31.25,31.25,0,0,1,4-4.6,11.08,11.08,0,0,1,5.2-3.13,2.83,2.83,0,0,1,2.39.47,2.47,2.47,0,0,1,1,2q0,1.71-2.14,4.37A20.19,20.19,0,0,1,53.36,100.21Zm2.42-4q.57-.1,2.42-2.39a4.28,4.28,0,0,0,1.1-2.65c0-.38-.14-.54-.43-.5q-.68.12-2.42,2.74a5.23,5.23,0,0,0-1.21,2.42Q55.25,96.28,55.78,96.18Z"/><path class="cls-1" d="M63.3,96.5c-.57.72-1,1.1-1.32,1.16a.64.64,0,0,1-.59-.22.84.84,0,0,1-.27-.59c0-.26.23-.61.68-1a36.16,36.16,0,0,0,2.42-3.06,48.94,48.94,0,0,1,4-4.73,9.1,9.1,0,0,1,4.92-2.9,5.67,5.67,0,0,1,2.25,0,2.08,2.08,0,0,1,1,.46,2.71,2.71,0,0,1,.82,2A4.27,4.27,0,0,1,76.42,90a3.51,3.51,0,0,1-2.17,1.67q-1.71.3-1.71-1.3a2.33,2.33,0,0,1,.29-1.08,2.12,2.12,0,0,1,1.28-1.08,1.16,1.16,0,0,0-.86-.17q-1.67.29-3.92,5a12.17,12.17,0,0,0-1.43,4.6q0,1.67,1.43,1.46a6,6,0,0,0,2.53-1.3,14.58,14.58,0,0,0,2.39-2.35,19.8,19.8,0,0,1,1.85-2.09,2.19,2.19,0,0,1,.64-.45,1,1,0,0,1,.64.21.36.36,0,0,1,.18.33q0,.75-2.49,3.54-4.53,5.08-8.38,5.75a3.8,3.8,0,0,1-2.1-.16,3.57,3.57,0,0,1-1.85-1.78,3,3,0,0,1-.43-1.92,8.11,8.11,0,0,1,.25-1.22A3.26,3.26,0,0,1,63.3,96.5Z"/><path class="cls-1" d="M90.57,82.81q.71-1.55.71-1.59a2.86,2.86,0,0,1,1.34-1.66q.57-.24,1.77.83a2.48,2.48,0,0,1,1,1.83,7,7,0,0,1-.82,2.39q-.93,2-2.82,5.88A5.7,5.7,0,0,0,91,92.86c0,.4.08.64.25.7s.69-.33,1.57-1.2a20.64,20.64,0,0,0,1.89-2.12c.28-.38.46-.58.53-.59s.31.06.5.27a.87.87,0,0,1,.29.55,1.63,1.63,0,0,1-.46.88l-1,1.19q-.75,1-2.69,3T89.29,98a5.36,5.36,0,0,1-2.35,1.16A2.44,2.44,0,0,1,85.32,99a1.49,1.49,0,0,1-.73-1.46,4.76,4.76,0,0,1,.18-1.21,30.51,30.51,0,0,1-3.32,3,6.24,6.24,0,0,1-2.64,1.21,2.63,2.63,0,0,1-2.17-.44,2.32,2.32,0,0,1-.85-2,6.86,6.86,0,0,1,.68-2.79q-.79.21-1,.05t-.21-1.09q0-.21.62-.89l1.2-1.32a35.59,35.59,0,0,0,2.71-3.37,21.65,21.65,0,0,1,2-2.73,11.71,11.71,0,0,1,3.64-2.67,7.77,7.77,0,0,1,2-.64A5.89,5.89,0,0,1,90.57,82.81ZM82.95,95.17q.75-.13,2.18-1.84a23.81,23.81,0,0,0,1.82-2.57q1.71-2.9,1.71-4.22c0-.57-.24-.81-.71-.73q-1,.17-3.6,4.31-2,3.21-2,4.39C82.3,95,82.52,95.25,82.95,95.17Z"/><path class="cls-1" d="M99.09,83.56A1.72,1.72,0,0,1,98.27,82a5,5,0,0,1,.53-2,3.53,3.53,0,0,1,2.6-2.17,1.5,1.5,0,0,1,1.09.16,1.11,1.11,0,0,1,.45,1,4.34,4.34,0,0,1-.43,1.71,3.66,3.66,0,0,0,2.78-.56,9.52,9.52,0,0,1,2.21-.92c.64-.11,1,.09,1.14.62a2.17,2.17,0,0,1,.07.56,3.47,3.47,0,0,1-.36,1.4q-.36.8-.71,1.53-1.17,2.7-2.64,6.24-.43,1.25,0,1.43a1.68,1.68,0,0,0,1.07-.79q.85-.94,2.14-2.45a1.4,1.4,0,0,1,1-.67.48.48,0,0,1,.5.13.63.63,0,0,1,.28.45,3.19,3.19,0,0,1-.64,1.15,28.1,28.1,0,0,1-7,7.12,5.06,5.06,0,0,1-1.92.84,2.27,2.27,0,0,1-2.16-.58,2.25,2.25,0,0,1-.69-1.87q.25-2.29,3.64-7.13a5.85,5.85,0,0,0,1.32-2.8c0-.59-.51-.8-1.53-.62q-3.85,5.7-5.49,7.6-.61.71-1.25.4a.39.39,0,0,1-.29-.41.9.9,0,0,1,.29-.62q1.53-2,2.39-3.2A41.83,41.83,0,0,0,99.09,83.56Z"/><path class="cls-1" d="M116.2,91q-3.1,3.79-5.17,4.16a2.58,2.58,0,0,1-1.39-.11,2.44,2.44,0,0,1-1.5-2.59,5.64,5.64,0,0,1,.11-1.05,7.21,7.21,0,0,1,.25-1.22,3.28,3.28,0,0,1,.75-1.17c-.59.7-1,1.07-1.28,1.12a.69.69,0,0,1-.61-.21.81.81,0,0,1-.28-.59c0-.31.24-.65.71-1a17.35,17.35,0,0,0,2.5-3.15,36.79,36.79,0,0,1,3.88-4.86,9.72,9.72,0,0,1,5-3.12,3.64,3.64,0,0,1,2.6.43q2.25-4.53,5-9.86l.53-1a.91.91,0,0,1,.82-.36,2,2,0,0,1,1.71.95,3.4,3.4,0,0,1,.82,1.89q0,.89-3.46,8.59-1.5,3.51-3.64,8.09a1.81,1.81,0,0,0-.32.91c0,.43.25.6.75.51a1.19,1.19,0,0,0,.71-.41,23.6,23.6,0,0,1,1.64-1.86,2.68,2.68,0,0,1,.61-.39,1,1,0,0,1,.64.17.36.36,0,0,1,.18.33q0,.61-2.42,3.67-3.24,4.14-6.56,4.72Q116.81,93.91,116.2,91Zm-1-1.72q1.14-.2,3.39-4,1.74-2.94,1.75-4.26c0-.55-.24-.78-.71-.69q-1,.18-3.6,4.31a8.2,8.2,0,0,0-1.57,3.8C114.49,89.07,114.74,89.35,115.24,89.26Z"/></g></g></svg>